<!DOCTYPE svg PUBLIC "-//W3C//DTD SVG 1.1//EN" "http://www.w3.org/Graphics/SVG/1.1/DTD/svg11.dtd">  
<svg width="128" height="22" xmlns="http://www.w3.org/2000/svg">  
<path fill-rule="evenodd" clip-rule="evenodd" d="M3 3H19V19H3V3Z" fill="#E68F52" fill-opacity="0.2"/>
<path fill-rule="evenodd" clip-rule="evenodd" d="M16 1.6C16 1.03995 16 0.759921 16.109 0.546009C16.2049 0.357847 16.3578 0.204867 16.546 0.108993C16.7599 0 17.0399 0 17.6 0H20.4C20.9601 0 21.2401 0 21.454 0.108993C21.6422 0.204867 21.7951 0.357847 21.891 0.546009C22 0.759921 22 1.03995 22 1.6V4.4C22 4.96005 22 5.24008 21.891 5.45399C21.7951 5.64215 21.6422 5.79513 21.454 5.89101C21.2401 6 20.9601 6 20.4 6H20V16H20.4C20.9601 16 21.2401 16 21.454 16.109C21.6422 16.2049 21.7951 16.3578 21.891 16.546C22 16.7599 22 17.0399 22 17.6V20.4C22 20.9601 22 21.2401 21.891 21.454C21.7951 21.6422 21.6422 21.7951 21.454 21.891C21.2401 22 20.9601 22 20.4 22H17.6C17.0399 22 16.7599 22 16.546 21.891C16.3578 21.7951 16.2049 21.6422 16.109 21.454C16 21.2401 16 20.9601 16 20.4V20H6V20.4C6 20.9601 6 21.2401 5.89101 21.454C5.79513 21.6422 5.64215 21.7951 5.45399 21.891C5.24008 22 4.96005 22 4.4 22H1.6C1.03995 22 0.759921 22 0.546009 21.891C0.357847 21.7951 0.204867 21.6422 0.108993 21.454C0 21.2401 0 20.9601 0 20.4V17.6C0 17.0399 0 16.7599 0.108993 16.546C0.204867 16.3578 0.357847 16.2049 0.546009 16.109C0.759921 16 1.03995 16 1.6 16H2V6H1.6C1.03995 6 0.759921 6 0.546009 5.89101C0.357847 5.79513 0.204867 5.64215 0.108993 5.45399C0 5.24008 0 4.96005 0 4.4V1.6C0 1.03995 0 0.759921 0.108993 0.546009C0.204867 0.357847 0.357847 0.204867 0.546009 0.108993C0.759921 0 1.03995 0 1.6 0H4.4C4.96005 0 5.24008 0 5.45399 0.108993C5.64215 0.204867 5.79513 0.357847 5.89101 0.546009C6 0.759921 6 1.03995 6 1.6V2H16V1.6ZM6 4V4.4C6 4.96005 6 5.24008 5.89101 5.45399C5.79513 5.64215 5.64215 5.79513 5.45399 5.89101C5.24008 6 4.96005 6 4.4 6H4V16H4.4C4.96005 16 5.24008 16 5.45399 16.109C5.64215 16.2049 5.79513 16.3578 5.89101 16.546C6 16.7599 6 17.0399 6 17.6V18H16V17.6C16 17.0399 16 16.7599 16.109 16.546C16.2049 16.3578 16.3578 16.2049 16.546 16.109C16.7599 16 17.0399 16 17.6 16H18V6H17.6C17.0399 6 16.7599 6 16.546 5.89101C16.3578 5.79513 16.2049 5.64215 16.109 5.45399C16 5.24008 16 4.96005 16 4.4V4H6Z" fill="#E68F52"/>
    <style type="text/css">  
        <![CDATA[  
        text {  
            font-family: Arial, sans-serif;  
            font-size: 14px;  
            fill: #000000; /* 文本颜色 */  
            text-anchor: left; /* 文本居中对齐（水平方向） */  
            dominant-baseline: left; /* 文本居中对齐（垂直方向） */  
        }  
        ]]>  
    </style>  
    <text x="27" y="16">多模态标注平台</text>  
</svg>