<?xml version="1.0" standalone="no"?>
<!DOCTYPE svg PUBLIC "-//W3C//DTD SVG 20010904//EN"
 "http://www.w3.org/TR/2001/REC-SVG-20010904/DTD/svg10.dtd">
<svg version="1.0" xmlns="http://www.w3.org/2000/svg"
 width="500.000000pt" height="500.000000pt" viewBox="0 0 500.000000 500.000000"
 preserveAspectRatio="xMidYMid meet">
<g transform="translate(0.000000,500.000000) scale(0.100000,-0.100000)"
fill="#000000" stroke="none">
<path d="M2360 4643 c-376 -28 -767 -176 -1078 -407 -475 -353 -766 -849 -848
-1441 -18 -138 -15 -442 6 -582 12 -77 15 -83 37 -83 26 0 26 0 14 66 -39 211
-33 515 15 749 171 821 822 1465 1635 1619 322 61 623 51 929 -30 411 -108
795 -352 1055 -669 248 -302 389 -605 462 -990 30 -160 28 -518 -3 -708 -7
-37 -6 -39 17 -35 22 3 25 11 38 88 21 129 20 488 -2 625 -92 584 -399 1076
-895 1432 -121 87 -397 222 -555 272 -265 84 -543 115 -827 94z"/>
<path d="M2260 4471 c0 -28 -11 -52 -21 -45 -5 3 -9 14 -9 24 0 13 -5 17 -15
14 -19 -8 -19 -28 1 -48 8 -9 12 -20 9 -26 -10 -17 -21 -11 -33 16 -24 51 -40
6 -18 -47 5 -11 1 -19 -10 -23 -12 -5 -15 -2 -10 11 6 14 5 15 -5 6 -15 -15
-18 -92 -4 -93 6 0 12 14 15 32 4 27 15 38 70 69 35 21 66 36 69 34 8 -9 -25
-38 -56 -52 -18 -7 -33 -20 -33 -28 0 -17 16 -20 25 -5 3 6 10 10 15 10 17 0
-3 -34 -34 -61 -30 -26 -31 -27 -13 -47 10 -11 32 -26 49 -33 27 -11 32 -10
44 6 8 10 14 31 14 45 0 14 5 31 11 37 15 15 3 33 -22 33 -18 0 -19 2 -4 30 9
17 19 30 23 30 4 0 13 4 21 9 22 14 -5 41 -40 41 -27 0 -28 2 -17 24 11 26 5
56 -12 56 -5 0 -10 -9 -10 -19z m23 -223 c10 -30 -5 -49 -37 -46 -40 4 -44 38
-6 49 37 10 38 10 43 -3z"/>
<path d="M2502 4425 c-12 -25 -22 -64 -22 -86 0 -46 24 -99 45 -99 19 0 19 14
1 29 -29 25 -26 100 9 184 16 38 -12 14 -33 -28z"/>
<path d="M2723 4383 c-3 -90 -10 -105 -48 -101 -13 2 -22 14 -28 41 -5 20 -12
37 -17 37 -12 0 -20 -124 -9 -131 6 -3 26 2 44 11 22 11 55 17 92 16 52 -1 58
-3 61 -23 4 -25 17 -30 28 -12 16 27 31 107 22 123 -15 27 -28 18 -28 -19 0
-35 0 -35 -45 -35 -51 0 -50 -3 -33 86 11 59 10 65 -8 79 -10 8 -21 14 -24 15
-3 0 -6 -39 -7 -87z"/>
<path d="M3094 4385 c-13 -19 -25 -25 -67 -27 l-52 -3 28 -29 c26 -26 27 -30
13 -45 -18 -20 -21 -61 -5 -61 6 0 19 5 31 11 17 9 19 8 16 -8 -3 -14 -13 -18
-45 -18 -47 0 -69 -15 -59 -40 6 -16 8 -16 31 -1 25 16 26 16 43 -14 20 -36
28 -37 38 -7 3 12 11 27 16 33 10 13 51 6 43 -7 -3 -4 -13 -6 -23 -3 -11 4 -8
-2 8 -15 28 -23 36 -25 45 -11 13 22 -7 48 -43 57 l-37 9 28 27 c25 26 26 30
13 54 -13 26 -14 26 -24 6 -11 -19 -52 -39 -52 -25 0 4 12 20 25 35 22 24 32
28 68 25 47 -3 50 3 22 49 -24 39 -39 41 -61 8z m46 -25 c0 -5 -4 -10 -10 -10
-5 0 -10 5 -10 10 0 6 5 10 10 10 6 0 10 -4 10 -10z"/>
<path d="M1847 4344 c-4 -4 -1 -14 7 -23 7 -9 16 -30 19 -48 5 -25 1 -39 -18
-62 -31 -36 -31 -41 -1 -41 13 0 26 -6 29 -12 7 -20 -11 -58 -28 -58 -8 0 -15
-6 -15 -14 0 -18 31 -10 57 14 14 13 19 28 17 56 -4 39 29 124 47 124 5 0 9 7
9 16 0 13 -7 15 -33 10 -27 -5 -34 -2 -42 16 -10 23 -35 34 -48 22z"/>
<path d="M3464 4245 c8 -23 -13 -61 -43 -75 -14 -7 -34 -17 -45 -22 -10 -5
-43 -12 -73 -15 -80 -9 -80 -26 1 -21 36 2 66 1 66 -2 -1 -3 -7 -16 -15 -30
-21 -37 -18 -58 8 -62 16 -2 23 -11 25 -31 5 -43 32 -30 70 33 41 68 49 99 31
111 -12 8 -12 11 1 19 21 14 30 12 36 -5 9 -21 24 -19 24 4 0 11 5 23 10 26
24 15 8 27 -26 20 -32 -6 -36 -4 -30 11 4 10 0 25 -10 35 -21 23 -38 25 -30 4z
m6 -125 c0 -6 -11 -33 -25 -61 -23 -45 -27 -48 -41 -34 -9 8 -20 15 -25 15 -5
0 -9 4 -9 8 0 5 14 7 30 4 31 -4 38 6 18 26 -9 9 -7 12 10 12 29 0 28 18 0 30
-21 8 -20 9 10 9 17 1 32 -4 32 -9z"/>
<path d="M1585 4184 l37 -57 -19 -46 c-10 -25 -20 -50 -22 -54 -2 -5 5 -7 14
-5 10 1 20 14 22 27 8 57 18 55 67 -14 27 -36 50 -64 53 -61 3 3 -12 33 -34
68 -22 35 -43 68 -46 75 -4 6 0 18 8 26 21 22 19 26 -12 24 -21 -2 -32 6 -52
36 -13 20 -30 37 -38 37 -9 0 -1 -20 22 -56z"/>
<path d="M3378 4223 c-17 -4 -33 -32 -23 -41 3 -3 24 1 47 8 27 9 37 15 26 18
-10 2 -18 8 -18 13 0 9 -4 10 -32 2z"/>
<path d="M1946 4183 c-8 -8 68 -33 102 -33 20 0 21 3 12 20 -8 16 -21 20 -59
20 -26 0 -51 -3 -55 -7z"/>
<path d="M1520 4161 c0 -6 7 -11 15 -11 8 0 15 -7 15 -16 0 -20 35 -66 44 -57
12 12 6 44 -9 49 -9 4 -14 14 -13 23 2 11 -6 17 -24 19 -16 2 -28 -1 -28 -7z"/>
<path d="M1470 4148 c0 -7 -7 -26 -15 -42 -17 -33 -13 -45 10 -26 9 7 18 10
22 6 10 -9 -25 -76 -39 -76 -20 0 14 -20 35 -20 10 0 22 10 28 23 7 17 8 14 4
-19 -4 -33 -1 -43 12 -48 9 -4 20 -1 24 6 7 10 11 10 21 0 23 -23 29 -12 8 15
-16 21 -20 36 -15 63 3 19 1 42 -5 50 -8 12 -10 11 -10 -7 0 -13 -5 -23 -11
-23 -7 0 -9 10 -7 25 4 19 1 25 -12 25 -24 0 -32 11 -19 26 6 7 8 18 4 24 -9
14 -35 13 -35 -2z"/>
<path d="M2399 4070 c-182 -17 -351 -63 -518 -141 -311 -146 -577 -409 -733
-724 -143 -288 -191 -650 -128 -964 11 -53 20 -99 20 -103 0 -5 12 -8 26 -8
17 0 24 4 21 13 -3 7 -13 51 -23 98 -27 120 -27 458 0 578 117 540 498 968
1008 1135 178 58 260 71 468 71 116 0 211 -5 255 -14 139 -27 299 -82 424
-146 413 -211 697 -585 793 -1043 19 -89 22 -139 22 -292 0 -173 -8 -246 -40
-375 -5 -22 -3 -25 18 -25 23 0 26 6 41 88 44 227 43 432 -3 643 -62 285 -204
543 -415 755 -132 133 -259 225 -409 298 -275 133 -533 182 -827 156z"/>
<path d="M3740 4017 c0 -14 -11 -28 -31 -40 -25 -14 -29 -20 -19 -32 10 -12 6
-13 -23 -8 -38 6 -56 -9 -38 -31 9 -11 5 -15 -16 -19 -49 -10 -46 9 11 68 54
56 66 75 47 75 -16 0 -121 -124 -121 -142 0 -10 19 -26 47 -40 25 -13 58 -38
72 -55 14 -18 29 -33 33 -33 4 0 6 29 4 65 l-4 66 24 -16 c32 -21 37 -19 30
10 -5 20 -3 25 14 25 25 0 26 25 3 39 -14 8 -15 12 -6 22 9 9 18 8 38 -5 25
-16 51 -14 40 4 -3 5 -28 22 -55 39 -49 30 -50 31 -50 8z m-60 -174 c0 -26 0
-26 -20 -8 -16 14 -17 20 -8 27 22 13 28 9 28 -19z"/>
<path d="M1217 3930 c-43 -57 -45 -64 -17 -57 16 4 24 -2 35 -30 13 -31 17
-34 31 -22 15 12 16 11 9 -11 -4 -14 -7 -27 -7 -30 -1 -28 4 -32 27 -26 22 6
25 3 25 -18 0 -14 -4 -27 -8 -30 -5 -3 -35 23 -67 57 -39 40 -60 57 -63 48 -5
-14 117 -141 135 -141 6 0 24 23 41 50 18 28 45 58 62 68 43 24 32 37 -33 37
-31 0 -57 2 -57 5 0 3 7 15 15 27 18 25 3 42 -20 23 -12 -10 -15 -9 -15 8 0
28 -15 35 -34 16 -33 -33 -42 9 -9 47 12 14 9 29 -7 29 -3 0 -22 -22 -43 -50z
m182 -133 c-2 -1 -14 -10 -25 -20 -21 -17 -22 -17 -27 3 -4 17 0 20 26 20 17
0 28 -1 26 -3z"/>
<path d="M2520 3952 c-21 -17 -22 -24 -21 -172 1 -85 4 -236 7 -335 l7 -180
39 3 c22 3 41 9 43 16 2 6 6 153 10 326 6 335 6 340 -41 354 -13 4 -30 0 -44
-12z"/>
<path d="M3971 3756 c-12 -12 -18 -25 -15 -29 3 -3 -3 -3 -15 0 -24 6 -27 18
-8 27 6 3 -4 3 -23 0 -34 -6 -79 -38 -68 -49 3 -3 17 -1 31 6 14 6 36 9 49 5
32 -8 118 -64 118 -76 0 -13 -29 -2 -68 27 -17 13 -37 21 -42 18 -16 -10 -11
-22 13 -30 l22 -7 -25 -7 c-16 -4 -35 -2 -51 8 -40 23 -59 9 -59 -43 0 -53 19
-70 59 -54 15 6 37 10 50 9 21 -1 23 2 18 28 -6 28 -5 29 28 27 19 -2 42 -9
50 -16 12 -10 19 -10 27 -2 11 11 8 20 -20 73 -1 3 11 6 28 7 36 1 50 8 50 28
0 16 -16 19 -25 4 -3 -5 -18 -10 -32 -10 -24 0 -25 1 -10 18 22 24 7 52 -17
33 -9 -8 -16 -22 -16 -33 0 -11 -5 -18 -12 -16 -19 7 -20 24 -3 41 19 19 19
23 1 30 -8 3 -23 -5 -35 -17z m-75 -139 l25 -23 -27 -14 c-23 -13 -27 -13 -40
5 -19 25 -18 55 1 55 9 0 27 -10 41 -23z"/>
<path d="M2280 3734 c-360 -77 -679 -327 -845 -662 -48 -98 -68 -151 -96 -267
-26 -104 -36 -331 -20 -446 13 -87 47 -218 61 -232 18 -19 18 12 0 67 -11 31
-26 104 -35 160 -37 251 -1 473 115 712 110 228 313 430 549 549 70 35 246 92
310 101 33 4 51 11 51 20 0 17 -6 17 -90 -2z"/>
<path d="M2716 3741 c-8 -13 0 -17 49 -25 78 -14 211 -59 301 -102 318 -155
553 -442 643 -787 56 -216 48 -438 -25 -686 -5 -18 -4 -23 7 -19 19 6 47 102
65 223 19 119 14 322 -10 432 -82 376 -320 684 -663 857 -75 37 -227 91 -289
101 -21 4 -46 9 -56 11 -9 3 -19 0 -22 -5z"/>
<path d="M1076 3658 c-25 -38 -97 -200 -92 -205 3 -3 17 -3 31 1 17 4 25 13
25 28 0 32 31 108 44 108 15 1 58 69 50 81 -10 17 -43 9 -58 -13z"/>
<path d="M2630 3520 c0 -37 3 -41 40 -56 72 -29 104 -119 58 -161 -36 -32 -63
-43 -146 -59 -154 -29 -230 -90 -240 -194 -3 -39 0 -55 17 -79 22 -31 69 -64
109 -76 20 -6 22 -3 22 33 0 28 -7 47 -25 66 -29 31 -32 72 -7 102 25 32 52
43 144 60 122 22 142 31 186 78 62 67 76 139 43 211 -31 67 -102 115 -171 115
-28 0 -30 -2 -30 -40z"/>
<path d="M2419 3525 c-69 -25 -117 -65 -144 -118 -14 -28 -25 -56 -25 -63 0
-6 -7 -14 -15 -18 -8 -3 -15 -10 -15 -15 0 -11 117 29 148 51 12 8 42 33 65
55 33 31 42 47 41 69 -1 16 -3 35 -3 42 -1 15 -6 14 -52 -3z m-59 -105 c0 -5
-4 -10 -10 -10 -5 0 -10 5 -10 10 0 6 5 10 10 10 6 0 10 -4 10 -10z"/>
<path d="M4095 3482 c-12 -12 -4 -52 13 -61 15 -10 15 -10 -3 -11 -12 0 -26 5
-31 10 -7 7 -17 5 -30 -5 -16 -12 -17 -16 -4 -24 12 -8 12 -12 -3 -29 -26 -28
-20 -36 9 -13 15 12 33 21 40 21 23 0 64 -23 58 -32 -3 -5 -12 -4 -20 3 -8 6
-17 10 -19 7 -12 -12 8 -34 43 -49 l37 -16 -72 -36 c-77 -39 -110 -69 -46 -41
144 62 131 59 155 38 21 -19 21 -19 15 7 -6 21 -2 30 18 43 13 9 31 16 40 16
15 0 32 26 23 36 -3 2 -28 -8 -56 -23 -49 -26 -52 -27 -84 -11 l-33 17 33 -6
c20 -3 32 -1 32 6 0 6 11 11 25 11 20 0 25 5 25 25 0 27 -15 34 -24 10 -3 -8
-14 -15 -25 -15 -11 0 -23 -5 -26 -10 -4 -6 -11 -7 -17 -4 -6 4 -5 10 3 15 10
6 8 9 -9 9 -15 0 -22 5 -19 13 5 13 10 13 41 1 15 -6 18 -4 13 9 -8 21 12 34
24 16 7 -12 11 -11 26 3 9 10 15 19 12 20 -39 25 -89 46 -89 39 0 -5 5 -13 10
-16 6 -3 10 -10 10 -16 0 -18 -28 -9 -59 20 -16 15 -33 26 -36 23z"/>
<path d="M814 3365 c-4 -9 -11 -15 -18 -14 -23 3 -36 -1 -36 -11 0 -5 6 -10
13 -10 7 0 18 -9 25 -20 14 -22 38 -26 45 -7 3 6 6 3 6 -9 1 -29 -8 -35 -32
-22 -17 8 -19 8 -14 -5 4 -10 1 -14 -6 -12 -7 3 -19 0 -27 -5 -13 -9 -13 -12
3 -21 9 -5 17 -16 17 -23 0 -13 20 -26 40 -26 4 0 6 9 3 20 -4 14 0 20 11 20
9 0 19 7 22 15 9 23 26 18 20 -5 -3 -11 -9 -29 -12 -40 -3 -11 -1 -20 5 -20 6
0 21 -10 34 -22 l22 -23 5 50 5 50 20 -52 c11 -29 23 -53 28 -53 8 0 -1 45
-15 73 -11 21 -10 21 36 2 54 -23 44 1 -14 30 -50 26 -60 44 -40 75 16 24 43
-16 29 -42 -10 -18 -8 -19 13 -13 31 10 31 10 23 34 -19 60 -66 67 -88 14 -14
-35 -15 -36 -16 -12 -1 32 -15 44 -59 54 -26 5 -32 10 -27 26 7 23 -13 26 -21
4z m71 -75 c3 -5 1 -10 -4 -10 -6 0 -11 5 -11 10 0 6 2 10 4 10 3 0 8 -4 11
-10z m35 -81 c0 -16 -4 -28 -9 -25 -8 5 -3 56 5 56 2 0 4 -14 4 -31z"/>
<path d="M2538 3113 c-9 -2 -18 -10 -20 -16 -2 -7 -2 -83 0 -169 4 -168 5
-173 53 -148 18 10 19 23 19 175 0 178 2 172 -52 158z"/>
<path d="M4197 3113 c-15 -14 -5 -22 30 -25 32 -3 42 -10 75 -58 40 -57 45
-70 28 -70 -5 0 -22 19 -37 43 -15 23 -29 44 -30 46 -2 3 -9 -1 -16 -8 -9 -11
-9 -14 1 -18 6 -3 12 -8 12 -13 0 -13 -37 1 -56 21 -26 28 -49 23 -70 -16 -23
-44 -12 -67 37 -76 19 -4 42 -10 51 -14 13 -5 19 -1 24 19 5 22 10 25 28 20
20 -7 45 -32 46 -46 0 -5 7 -8 15 -8 16 0 30 42 21 65 -7 18 -4 18 28 4 20 -9
29 -9 41 1 22 18 19 28 -7 23 -13 -2 -30 1 -38 7 -13 9 -13 12 3 21 16 10 24
39 10 39 -4 0 -17 -9 -29 -21 -12 -12 -27 -18 -33 -14 -18 10 -13 21 15 33 14
7 22 17 19 22 -9 15 -41 12 -55 -5 -10 -12 -16 -13 -26 -4 -17 14 -19 33 -2
23 7 -4 8 -3 4 4 -8 13 -78 17 -89 5z m-3 -104 c17 -35 14 -49 -13 -49 -29 0
-43 23 -31 54 13 34 25 33 44 -5z"/>
<path d="M1540 2975 c-39 -11 10 -13 368 -14 327 -1 413 2 410 12 -7 18 -715
20 -778 2z"/>
<path d="M2620 2975 c0 -13 60 -15 483 -14 415 0 477 2 447 14 -27 11 -133 14
-482 14 -392 1 -448 -1 -448 -14z"/>
<path d="M699 2964 c-10 -13 -10 -17 1 -24 8 -5 11 -12 7 -17 -5 -4 -12 -1
-17 6 -9 16 -40 7 -40 -11 1 -7 15 -22 33 -33 25 -16 33 -28 35 -58 4 -41 5
-42 32 -27 13 7 17 16 13 28 -7 16 -6 16 20 -1 27 -17 58 -22 70 -11 3 4 0 19
-9 35 -13 26 -13 29 1 29 22 0 40 -50 26 -72 -9 -14 -7 -20 8 -28 18 -9 51 -5
51 7 0 2 -7 11 -15 19 -21 21 -19 29 10 48 34 22 31 33 -10 40 -26 5 -35 12
-35 26 0 11 5 20 10 20 6 0 10 -6 10 -12 0 -7 7 -2 16 11 19 26 8 45 -22 39
-14 -2 -20 -14 -22 -41 -4 -43 -30 -51 -54 -16 -12 19 -16 20 -36 8 -27 -17
-28 -29 -3 -36 11 -3 21 -13 24 -24 6 -23 3 -23 -33 -2 -22 13 -29 26 -34 65
-7 51 -15 58 -37 32z"/>
<path d="M1693 2933 c119 -2 315 -2 435 0 119 1 21 2 -218 2 -239 0 -337 -1
-217 -2z"/>
<path d="M2903 2933 c130 -2 344 -2 475 0 130 1 23 2 -238 2 -261 0 -368 -1
-237 -2z"/>
<path d="M2620 2892 c0 -23 6 -45 15 -52 37 -31 9 -68 -70 -94 -99 -32 -138
-94 -95 -149 29 -37 40 -34 40 11 0 49 20 68 88 83 86 18 144 88 128 154 -6
25 -50 75 -66 75 -4 0 -15 3 -24 6 -13 5 -16 -1 -16 -34z"/>
<path d="M1728 2913 c116 -2 308 -2 425 0 116 1 21 2 -213 2 -234 0 -329 -1
-212 -2z"/>
<path d="M2928 2913 c123 -2 321 -2 440 0 119 1 19 2 -223 2 -242 0 -340 -1
-217 -2z"/>
<path d="M2238 2883 c18 -2 45 -2 60 0 15 2 0 4 -33 4 -33 0 -45 -2 -27 -4z"/>
<path d="M2753 2883 c9 -2 25 -2 35 0 9 3 1 5 -18 5 -19 0 -27 -2 -17 -5z"/>
<path d="M3518 2883 c7 -3 16 -2 19 1 4 3 -2 6 -13 5 -11 0 -14 -3 -6 -6z"/>
<path d="M1793 2863 c120 -2 314 -2 430 0 117 1 19 2 -218 2 -236 0 -332 -1
-212 -2z"/>
<path d="M2938 2863 c105 -2 279 -2 385 0 105 1 19 2 -193 2 -212 0 -298 -1
-192 -2z"/>
<path d="M2018 2826 c31 -6 50 -15 45 -20 -4 -5 3 -6 19 -2 14 3 28 2 30 -4 2
-6 17 -6 43 1 22 7 72 17 110 24 68 13 65 13 -115 13 -163 0 -179 -2 -132 -12z"/>
<path d="M2825 2825 c39 -7 88 -17 110 -24 26 -7 41 -7 43 -1 2 6 16 7 30 4
16 -4 23 -3 19 2 -5 5 14 14 45 20 47 10 31 12 -132 12 -180 0 -183 0 -115
-13z"/>
<path d="M3198 2823 c7 -3 16 -2 19 1 4 3 -2 6 -13 5 -11 0 -14 -3 -6 -6z"/>
<path d="M1663 2813 c15 -2 39 -2 55 0 15 2 2 4 -28 4 -30 0 -43 -2 -27 -4z"/>
<path d="M3383 2813 c15 -2 37 -2 50 0 12 2 0 4 -28 4 -27 0 -38 -2 -22 -4z"/>
<path d="M1840 2800 c-8 -5 -10 -10 -5 -10 6 0 17 5 25 10 8 5 11 10 5 10 -5
0 -17 -5 -25 -10z"/>
<path d="M1898 2803 c6 -2 18 -2 25 0 6 3 1 5 -13 5 -14 0 -19 -2 -12 -5z"/>
<path d="M3168 2803 c6 -2 18 -2 25 0 6 3 1 5 -13 5 -14 0 -19 -2 -12 -5z"/>
<path d="M3240 2800 c0 -5 5 -10 11 -10 5 0 7 5 4 10 -3 6 -8 10 -11 10 -2 0
-4 -4 -4 -10z"/>
<path d="M1748 2773 c6 -2 18 -2 25 0 6 3 1 5 -13 5 -14 0 -19 -2 -12 -5z"/>
<path d="M3318 2773 c6 -2 18 -2 25 0 6 3 1 5 -13 5 -14 0 -19 -2 -12 -5z"/>
<path d="M4206 2757 c-36 -12 -33 -27 7 -27 17 0 43 -3 57 -6 22 -4 21 -3 -5
10 l-30 15 48 -1 c46 -2 62 -13 32 -24 -23 -9 -18 -17 23 -43 27 -17 43 -36
54 -68 9 -26 12 -43 5 -40 -14 4 -24 24 -32 61 -5 22 -10 27 -26 23 -12 -3
-22 0 -26 9 -6 17 -43 19 -43 2 0 -6 -11 -1 -25 12 -37 35 -43 15 -7 -23 32
-33 45 -60 18 -37 -8 6 -25 10 -38 8 -21 -3 -23 -9 -26 -65 l-3 -63 36 0 c22
0 34 4 30 10 -3 6 -12 10 -20 10 -15 0 -25 22 -25 54 0 31 9 37 34 24 30 -16
79 -20 87 -7 8 13 49 -27 49 -49 0 -27 35 -7 38 21 2 16 12 37 23 48 24 24 18
38 -16 31 -24 -4 -30 3 -26 35 1 6 -6 14 -16 16 -10 3 -1 3 20 0 32 -4 37 -3
37 14 0 11 -8 27 -18 36 -17 15 -19 15 -35 -3 -9 -11 -25 -20 -34 -20 -16 1
-16 2 1 15 11 8 18 17 15 19 -9 9 -138 11 -163 3z"/>
<path d="M1868 2733 c7 -3 16 -2 19 1 4 3 -2 6 -13 5 -11 0 -14 -3 -6 -6z"/>
<path d="M3198 2733 c6 -2 18 -2 25 0 6 3 1 5 -13 5 -14 0 -19 -2 -12 -5z"/>
<path d="M2293 2717 c1 -6 -17 -12 -40 -14 -25 -2 -43 1 -43 7 0 17 -20 11
-43 -14 -17 -18 -27 -22 -38 -15 -7 5 -21 9 -29 9 -11 0 -12 -2 -2 -8 9 -6 6
-12 -11 -21 -13 -7 -27 -11 -33 -10 -5 1 -16 1 -24 0 -12 -1 -11 -4 3 -12 18
-11 14 -29 -6 -29 -8 0 -8 3 1 9 10 6 8 10 -9 14 -13 4 -25 4 -28 2 -2 -3 2
-5 10 -5 11 0 11 -2 -1 -10 -18 -12 -43 -13 -36 -2 3 5 -35 -1 -85 -12 -49
-12 -81 -22 -70 -24 11 -2 43 4 72 12 60 18 94 21 69 7 -33 -20 -151 -44 -245
-52 l-100 -7 110 3 c105 3 136 9 280 59 13 5 12 2 -5 -8 -14 -9 -19 -15 -11
-16 11 0 10 -4 -5 -16 -16 -13 -16 -15 -1 -10 35 11 16 -4 -40 -32 -72 -36
-93 -41 -223 -58 l-105 -13 101 4 c92 4 139 14 229 50 15 6 17 5 9 -4 -24 -26
-131 -54 -227 -59 -54 -2 -100 -9 -104 -15 -11 -17 180 0 243 23 59 20 90 20
38 -1 -65 -26 -133 -39 -201 -39 -46 0 -73 -4 -73 -11 0 -16 161 -1 232 21 32
10 55 14 52 9 -10 -17 -119 -42 -209 -49 l-90 -7 95 -1 c70 -1 110 4 150 18
74 25 76 18 3 -10 -33 -12 -98 -25 -153 -29 l-95 -8 85 -1 c78 -1 124 5 175
23 16 6 17 5 5 -4 -27 -19 -83 -30 -168 -32 -46 -2 -86 -7 -89 -12 -10 -16
197 -2 240 16 21 9 35 12 32 8 -12 -21 -103 -41 -181 -41 -50 0 -86 -4 -90
-11 -5 -8 22 -10 98 -8 93 4 111 8 169 36 39 20 92 59 136 102 39 38 89 79
110 89 53 27 139 42 245 42 l88 0 -20 33 c-25 40 -25 64 0 104 11 19 15 35 10
38 -6 4 -10 2 -10 -3 0 -5 -12 -7 -27 -6 -99 11 -122 11 -120 1z"/>
<path d="M2819 2725 c-3 -2 -21 -5 -40 -6 -18 -1 -54 -14 -79 -30 -25 -15 -55
-30 -67 -34 -18 -5 -23 -14 -23 -41 0 -19 4 -34 9 -34 5 0 17 -7 26 -16 13
-13 35 -16 103 -15 153 3 232 -30 345 -141 39 -39 85 -72 127 -92 59 -28 76
-31 183 -34 74 -3 117 0 117 6 0 6 -50 12 -122 14 -103 3 -130 7 -165 26 -58
30 -55 36 5 10 36 -17 73 -23 165 -26 82 -3 117 -1 117 7 0 7 -34 11 -105 11
-81 0 -117 5 -160 21 -72 27 -68 34 5 9 42 -15 81 -19 165 -18 l110 1 -105 7
c-104 7 -171 21 -200 40 -20 13 -14 12 44 -5 32 -10 86 -14 155 -13 l106 1
-115 7 c-81 5 -132 14 -173 30 -76 29 -69 35 12 9 71 -22 261 -36 261 -19 0 6
-33 10 -80 10 -43 0 -103 5 -132 11 -52 11 -144 51 -163 71 -5 6 5 3 24 -7 73
-37 144 -54 253 -61 83 -5 109 -4 104 4 -5 8 -39 12 -94 12 -49 0 -114 7 -147
15 -64 17 -164 67 -146 73 9 3 9 7 0 18 -7 8 11 4 42 -11 77 -35 161 -52 259
-52 l85 -1 -95 9 c-52 5 -121 16 -154 24 -76 20 -210 86 -193 97 9 6 8 8 -2 8
-8 0 -12 3 -9 6 3 3 32 -6 64 -19 102 -42 224 -73 224 -57 0 4 -23 10 -51 14
-51 7 -193 55 -186 63 3 2 34 -6 71 -17 36 -12 70 -20 75 -18 5 1 -29 15 -75
29 -46 15 -81 22 -78 17 4 -6 -2 -8 -12 -6 -11 2 -18 10 -17 16 4 15 -3 15
-29 1 -18 -10 -20 -9 -15 5 4 9 1 16 -6 16 -8 0 -7 4 3 11 11 8 7 9 -17 4 -23
-5 -37 -2 -48 8 -11 12 -12 17 -2 20 6 3 -4 6 -23 6 -23 0 -30 -2 -22 -8 11
-6 10 -10 -3 -15 -10 -3 -23 -1 -31 5 -7 6 -23 8 -35 4 -18 -6 -21 -4 -16 9 6
15 -12 23 -24 11z"/>
<path d="M3318 2723 c7 -3 16 -2 19 1 4 3 -2 6 -13 5 -11 0 -14 -3 -6 -6z"/>
<path d="M3168 2713 c7 -3 16 -2 19 1 4 3 -2 6 -13 5 -11 0 -14 -3 -6 -6z"/>
<path d="M1798 2703 c12 -2 30 -2 40 0 9 3 -1 5 -23 4 -22 0 -30 -2 -17 -4z"/>
<path d="M3258 2703 c12 -2 32 -2 45 0 12 2 2 4 -23 4 -25 0 -35 -2 -22 -4z"/>
<path d="M3108 2683 c7 -3 16 -2 19 1 4 3 -2 6 -13 5 -11 0 -14 -3 -6 -6z"/>
<path d="M752 2668 c-15 -15 -16 -38 -2 -38 6 0 10 5 10 11 0 6 12 9 28 7 24
-3 27 -7 30 -45 l3 -43 -70 0 c-78 0 -101 -6 -101 -26 0 -11 20 -14 89 -14 72
0 90 -3 95 -16 11 -28 7 -34 -34 -50 -22 -9 -38 -20 -35 -24 8 -12 128 -5 133
8 2 6 -6 24 -17 38 -12 15 -21 40 -21 55 0 16 -5 29 -11 29 -6 0 -9 16 -7 38
2 30 7 38 26 40 12 2 22 7 22 12 0 20 -121 35 -138 18z"/>
<path d="M1888 2653 c7 -3 16 -2 19 1 4 3 -2 6 -13 5 -11 0 -14 -3 -6 -6z"/>
<path d="M3138 2653 c7 -3 16 -2 19 1 4 3 -2 6 -13 5 -11 0 -14 -3 -6 -6z"/>
<path d="M3238 2653 c7 -3 16 -2 19 1 4 3 -2 6 -13 5 -11 0 -14 -3 -6 -6z"/>
<path d="M1925 2640 c-13 -6 -15 -9 -5 -9 8 0 22 4 30 9 18 12 2 12 -25 0z"/>
<path d="M2550 2643 c-8 -3 -17 -9 -20 -13 -3 -5 -3 -93 0 -196 4 -162 7 -189
21 -192 13 -2 17 13 22 95 9 133 9 313 0 312 -5 0 -15 -3 -23 -6z"/>
<path d="M1778 2633 c7 -3 16 -2 19 1 4 3 -2 6 -13 5 -11 0 -14 -3 -6 -6z"/>
<path d="M3348 2633 c7 -3 16 -2 19 1 4 3 -2 6 -13 5 -11 0 -14 -3 -6 -6z"/>
<path d="M3248 2623 c7 -3 16 -2 19 1 4 3 -2 6 -13 5 -11 0 -14 -3 -6 -6z"/>
<path d="M1828 2613 c6 -2 18 -2 25 0 6 3 1 5 -13 5 -14 0 -19 -2 -12 -5z"/>
<path d="M1718 2603 c12 -2 32 -2 45 0 12 2 2 4 -23 4 -25 0 -35 -2 -22 -4z"/>
<path d="M3155 2575 c86 -42 199 -65 302 -64 l78 2 -107 8 c-117 9 -197 28
-270 65 -26 13 -53 24 -60 23 -7 0 19 -16 57 -34z"/>
<path d="M3368 2603 c6 -2 18 -2 25 0 6 3 1 5 -13 5 -14 0 -19 -2 -12 -5z"/>
<path d="M3418 2603 c6 -2 18 -2 25 0 6 3 1 5 -13 5 -14 0 -19 -2 -12 -5z"/>
<path d="M3303 2583 c9 -2 23 -2 30 0 6 3 -1 5 -18 5 -16 0 -22 -2 -12 -5z"/>
<path d="M1620 2570 c0 -5 7 -7 15 -4 8 4 15 8 15 10 0 2 -7 4 -15 4 -8 0 -15
-4 -15 -10z"/>
<path d="M1688 2573 c17 -2 47 -2 65 0 17 2 3 4 -33 4 -36 0 -50 -2 -32 -4z"/>
<path d="M1881 2554 c-43 -14 -117 -28 -175 -33 -92 -7 -95 -8 -34 -10 80 -1
202 21 260 48 58 26 39 24 -51 -5z"/>
<path d="M3387 2573 c18 -2 50 -2 70 0 21 2 7 4 -32 4 -38 0 -55 -2 -38 -4z"/>
<path d="M3505 2570 c3 -5 8 -10 11 -10 2 0 4 5 4 10 0 6 -5 10 -11 10 -5 0
-7 -4 -4 -10z"/>
<path d="M2610 2542 c0 -21 57 -86 64 -73 7 10 -36 84 -51 89 -8 2 -13 -5 -13
-16z"/>
<path d="M1888 2529 c-40 -16 -121 -30 -248 -42 -19 -2 -3 -4 35 -5 80 -2 184
18 247 47 54 24 29 25 -34 0z"/>
<path d="M3408 2543 c23 -2 61 -2 85 0 23 2 4 4 -43 4 -47 0 -66 -2 -42 -4z"/>
<path d="M3192 2504 c67 -34 149 -51 253 -51 50 0 70 1 45 3 -124 11 -219 28
-273 50 -76 30 -85 30 -25 -2z"/>
<path d="M4400 2417 c-28 -15 -49 -17 -107 -13 -70 4 -97 -5 -50 -18 70 -19
207 3 207 34 0 17 -15 16 -50 -3z"/>
<path d="M1758 2123 l-3 -78 -33 -3 c-27 -3 -35 1 -39 17 -5 21 -11 21 -252
21 -135 1 -283 2 -329 4 -80 3 -84 2 -93 -21 -7 -20 -15 -24 -41 -21 -24 2
-34 9 -36 23 -3 19 -10 20 -119 19 -109 -1 -193 -17 -193 -36 0 -4 63 -8 140
-8 131 0 140 -1 140 -19 0 -17 8 -19 71 -20 63 -1 71 1 76 19 5 19 14 20 304
20 287 0 299 -1 299 -19 0 -17 7 -19 72 -18 l73 2 -2 76 c-2 71 0 77 20 83 11
3 105 3 207 1 102 -2 201 -4 221 -4 28 -1 38 -6 42 -20 5 -19 16 -20 253 -20
237 -1 285 4 270 27 -7 11 216 19 381 14 l102 -4 3 -76 3 -77 73 -3 c67 -3 72
-1 72 18 0 20 5 20 299 20 284 0 299 -1 304 -19 4 -16 14 -19 72 -19 58 0 68
3 72 19 5 17 17 19 127 20 66 1 129 1 139 0 29 -3 19 14 -16 27 -19 7 -86 12
-159 12 -114 0 -126 -2 -124 -17 1 -14 -8 -19 -36 -21 -30 -3 -37 0 -40 18 -3
21 -6 21 -330 20 -181 0 -332 0 -337 0 -5 0 -8 -8 -7 -17 1 -14 -8 -19 -36
-21 l-38 -3 0 80 0 81 -279 0 c-270 0 -279 -1 -284 -20 -5 -19 -14 -20 -226
-20 -214 0 -221 1 -221 20 0 20 -7 20 -280 20 l-279 0 -3 -77z"/>
<path d="M1830 2040 l0 -80 -111 0 c-102 0 -111 2 -116 20 -5 19 -14 20 -258
20 -245 0 -254 -1 -260 -20 -6 -18 -15 -20 -116 -20 -102 0 -109 1 -109 20 0
19 -7 20 -205 20 -177 0 -210 -2 -238 -17 -31 -18 -28 -18 184 -21 206 -2 217
-3 222 -22 5 -19 14 -20 151 -20 139 0 146 1 146 20 0 19 7 20 219 20 210 0
219 -1 224 -20 5 -19 14 -20 156 -20 l150 0 3 83 3 82 90 3 c136 5 212 -5 218
-29 5 -18 18 -19 360 -19 l356 0 3 22 c3 19 11 22 58 25 30 2 101 1 158 -2
l102 -7 0 -79 0 -79 150 0 c143 0 150 1 150 20 0 19 7 20 225 20 218 0 225 -1
225 -20 0 -19 7 -20 146 -20 137 0 146 1 151 20 5 19 15 20 182 22 97 1 193 1
214 0 46 -1 47 5 2 24 -26 11 -82 14 -235 14 -193 0 -200 -1 -200 -20 0 -19
-7 -20 -111 -20 -102 0 -111 2 -116 20 -5 19 -14 20 -258 20 -246 0 -253 -1
-258 -20 -5 -19 -12 -21 -119 -18 l-113 3 2 78 2 77 -193 0 c-183 0 -194 -1
-199 -19 -5 -19 -16 -20 -322 -21 -310 0 -317 0 -322 20 -5 19 -13 20 -199 20
l-194 0 0 -80z"/>
<path d="M1908 1973 l-3 -68 -192 -3 c-188 -2 -193 -2 -193 18 0 19 -6 20
-180 20 -173 0 -180 -1 -180 -20 0 -20 -7 -20 -462 -20 -334 0 -471 -3 -495
-12 -18 -7 -33 -15 -33 -18 0 -3 230 -6 511 -7 496 -1 511 -1 516 18 5 18 16
19 143 19 128 0 138 -1 143 -19 5 -19 15 -20 233 -17 l229 3 3 66 3 67 69 0
c63 0 70 -2 70 -20 0 -19 10 -19 455 -20 450 0 455 0 455 20 0 18 6 20 69 20
77 0 80 -3 76 -65 -6 -74 -20 -70 231 -73 218 -3 226 -2 231 17 7 26 13 27
158 23 106 -3 124 -6 127 -20 4 -16 45 -17 516 -20 282 -1 512 1 512 6 0 27
-77 32 -524 32 -446 1 -458 1 -463 20 -5 19 -15 20 -183 20 -170 0 -178 -1
-183 -20 -5 -20 -12 -20 -194 -18 l-188 3 -3 68 -3 67 -109 0 c-61 0 -109 -3
-109 -7 5 -33 2 -33 -417 -33 -407 0 -416 0 -421 20 -5 18 -14 20 -109 20
l-103 0 -3 -67z"/>
<path d="M557 1783 c-3 -4 21 -64 52 -133 219 -482 627 -877 1114 -1080 500
-208 1088 -213 1593 -14 401 157 765 455 1004 820 56 85 185 341 196 387 6 26
4 28 -16 25 -18 -2 -30 -22 -60 -91 -95 -219 -257 -456 -434 -632 -226 -224
-475 -383 -769 -489 -584 -212 -1259 -142 -1785 186 -363 226 -674 587 -823
958 -19 46 -32 66 -47 68 -11 2 -22 0 -25 -5z"/>
<path d="M1190 1780 c0 -17 61 -112 126 -195 410 -531 1109 -736 1744 -513
254 90 504 267 682 485 56 69 148 208 148 225 0 4 -10 8 -22 8 -18 -1 -36 -21
-75 -83 -124 -196 -322 -380 -533 -495 -216 -118 -411 -169 -675 -178 -145 -5
-188 -3 -291 14 -297 51 -569 186 -787 391 -91 85 -240 276 -263 335 -7 17
-54 22 -54 6z"/>
<path d="M1767 1732 c-35 -38 -9 -83 58 -102 33 -9 45 -18 45 -31 0 -30 -46
-36 -74 -10 -41 38 -69 20 -35 -23 17 -22 29 -26 69 -26 58 0 80 18 80 66 0
36 0 36 -93 73 -34 14 -31 35 6 39 18 2 29 -2 33 -12 7 -17 54 -22 54 -6 0 6
-9 19 -20 30 -27 27 -100 28 -123 2z"/>
<path d="M2100 1645 l0 -105 59 0 c83 0 103 18 109 98 4 55 2 63 -21 86 -22
22 -35 26 -87 26 l-60 0 0 -105z m108 59 c17 -12 22 -25 22 -59 0 -48 -24 -75
-67 -75 -22 0 -23 4 -23 75 0 71 1 75 23 75 12 0 33 -7 45 -16z"/>
<path d="M2460 1655 c0 -52 0 -98 0 -102 0 -5 8 -8 18 -8 13 0 18 10 20 42 3
42 3 42 45 45 59 4 58 32 0 36 -38 3 -43 6 -43 28 0 22 4 24 50 24 38 0 50 4
50 15 0 12 -14 15 -70 15 l-70 0 0 -95z"/>
<path d="M2780 1646 c0 -99 1 -106 20 -106 18 0 20 7 21 73 l1 72 13 -45 c7
-25 16 -58 19 -73 5 -22 12 -28 29 -25 18 2 24 14 36 66 15 66 34 84 31 30 -4
-72 0 -98 15 -98 12 0 15 18 15 105 l0 105 -29 0 c-27 0 -30 -4 -46 -65 -10
-36 -21 -63 -24 -59 -3 3 -13 31 -22 62 -14 53 -18 57 -47 60 l-32 3 0 -105z"/>
<path d="M3172 1659 c4 -106 13 -119 89 -119 67 0 79 20 79 127 0 76 -2 83
-20 83 -18 0 -20 -7 -20 -71 0 -78 -11 -109 -40 -109 -37 0 -50 27 -50 106 0
69 -2 74 -21 74 -20 0 -21 -4 -17 -91z"/>
<path d="M1125 1630 c-4 -6 -5 -25 -3 -43 2 -23 -1 -32 -12 -32 -10 0 -14 8
-12 23 1 15 -2 22 -10 20 -20 -7 -20 -24 1 -49 16 -20 23 -22 38 -13 13 9 17
21 15 49 -3 25 0 35 7 31 6 -4 11 -16 11 -27 0 -10 5 -19 10 -19 16 0 12 37
-6 54 -18 18 -30 20 -39 6z"/>
<path d="M3930 1609 c0 -6 5 -19 10 -30 10 -17 7 -19 -19 -19 -16 0 -33 -4
-36 -10 -4 -6 8 -10 30 -10 19 0 44 -5 55 -12 27 -17 39 -1 13 17 -12 8 -24
29 -28 45 -6 28 -25 43 -25 19z"/>
<path d="M1167 1523 c-20 -16 -36 -31 -37 -35 0 -13 28 -9 33 5 3 9 7 9 20 -2
21 -17 21 -30 0 -53 -27 -30 4 -21 47 13 40 32 46 59 9 36 -17 -10 -22 -9 -35
8 -12 17 -12 20 1 28 16 9 21 27 7 27 -5 0 -25 -12 -45 -27z"/>
<path d="M3846 1499 c-31 -36 -34 -54 -6 -37 16 10 23 9 43 -10 23 -22 47 -29
47 -14 0 4 -14 16 -30 27 -24 15 -29 25 -25 43 7 29 2 28 -29 -9z"/>
<path d="M4102 1498 c-7 -7 -12 -22 -12 -35 0 -27 20 -30 54 -7 16 10 26 12
31 5 8 -14 -3 -31 -21 -31 -8 0 -14 -4 -14 -10 0 -15 27 -12 44 6 37 37 -4 85
-43 50 -22 -20 -31 -20 -31 -1 0 8 7 15 15 15 8 0 15 5 15 10 0 14 -23 13 -38
-2z"/>
<path d="M925 1468 c-3 -7 -4 -25 -2 -40 3 -36 -17 -41 -21 -5 -4 33 -22 36
-22 3 0 -23 23 -56 38 -56 24 1 33 19 26 55 -5 29 -4 37 7 33 7 -2 16 -15 20
-29 5 -21 7 -22 14 -6 5 12 1 25 -10 37 -21 23 -43 26 -50 8z"/>
<path d="M1253 1417 c-29 -11 -50 -24 -47 -29 3 -5 12 -7 19 -4 18 6 41 -22
37 -46 -6 -35 15 -18 38 32 14 30 20 54 14 58 -5 5 -33 0 -61 -11z m41 -22
c-7 -17 -20 -20 -28 -6 -4 5 0 12 6 14 23 9 28 7 22 -8z"/>
<path d="M1790 1430 c0 -7 258 -10 755 -10 497 0 755 3 755 10 0 7 -258 10
-755 10 -497 0 -755 -3 -755 -10z"/>
<path d="M3790 1431 c0 -15 78 -73 84 -63 3 5 -12 23 -34 41 -41 33 -50 37
-50 22z"/>
<path d="M4031 1399 c-13 -17 -21 -32 -19 -33 1 -1 21 -15 42 -31 l39 -28 24
27 c12 15 23 32 23 39 0 7 -11 0 -24 -15 -17 -19 -27 -23 -35 -15 -8 8 -6 16
6 29 9 10 13 21 9 25 -4 4 -15 -3 -25 -16 -13 -17 -20 -20 -26 -12 -4 7 0 20
9 30 18 19 20 31 8 31 -5 0 -18 -14 -31 -31z"/>
<path d="M972 1365 c-25 -20 -38 -36 -32 -40 6 -4 18 -1 26 6 12 10 18 9 31
-4 15 -15 15 -18 -2 -37 -14 -15 -15 -20 -4 -20 20 1 85 57 77 66 -4 4 -14 1
-23 -6 -12 -10 -18 -10 -30 0 -19 16 -19 30 2 45 9 7 12 15 7 18 -6 3 -29 -9
-52 -28z"/>
<path d="M3728 1365 c-17 -37 1 -52 42 -35 34 14 46 9 36 -16 -3 -9 -13 -14
-21 -10 -8 3 -17 1 -20 -3 -10 -17 23 -19 44 -4 31 21 25 58 -9 57 -14 -1 -33
-4 -42 -9 -12 -4 -18 -3 -18 5 0 6 9 14 20 17 26 7 26 23 0 23 -12 0 -25 -10
-32 -25z"/>
<path d="M1325 1330 c-23 -24 -33 -40 -24 -40 8 0 20 9 27 20 15 25 35 26 29
3 -23 -85 -12 -95 43 -38 38 40 33 61 -6 24 l-26 -24 7 48 c4 27 3 47 -2 47
-5 0 -27 -18 -48 -40z"/>
<path d="M3958 1305 c-23 -50 51 -102 90 -63 15 15 16 58 2 58 -5 0 -10 -9
-10 -20 0 -40 -60 -36 -68 4 -2 11 4 19 17 23 27 7 27 23 1 23 -12 0 -25 -10
-32 -25z"/>
<path d="M1962 1309 c2 -6 7 -10 11 -10 4 1 266 1 582 1 377 0 575 3 575 10 0
7 -202 10 -586 10 -413 0 -585 -3 -582 -11z"/>
<path d="M3653 1296 l-27 -24 29 -35 c29 -35 55 -47 55 -27 0 6 -4 10 -10 10
-5 0 -10 7 -10 15 0 13 7 15 35 9 23 -4 35 -2 35 5 0 6 -9 11 -21 11 -15 0
-19 5 -15 15 5 14 -18 45 -34 45 -5 0 -21 -11 -37 -24z m37 -31 c-10 -12 -16
-13 -26 -4 -12 10 -11 14 3 25 23 16 41 1 23 -21z"/>
<path d="M1421 1253 c-37 -43 -37 -47 -9 -67 32 -23 54 -20 77 10 22 28 15 60
-19 82 -15 9 -23 6 -49 -25z m54 -23 c0 -28 -29 -50 -46 -33 -8 8 -6 18 6 37
21 31 40 29 40 -4z"/>
<path d="M1050 1258 l-45 -21 33 -9 c25 -7 32 -14 32 -33 0 -37 12 -30 38 21
33 68 19 79 -58 42z m42 -24 c-7 -12 -11 -13 -17 -4 -4 7 -2 16 6 21 18 11 23
4 11 -17z"/>
<path d="M3569 1226 l-27 -23 32 -41 c17 -23 33 -41 36 -41 11 0 62 50 56 56
-3 3 -15 -2 -26 -12 -15 -14 -23 -16 -32 -7 -8 8 -5 16 13 31 26 22 11 29 -21
9 -27 -17 -40 1 -12 19 21 15 30 33 15 33 -5 0 -20 -11 -34 -24z"/>
<path d="M3910 1243 c0 -4 10 -17 23 -31 l22 -24 -30 7 c-16 4 -35 8 -41 10
-11 3 -42 -12 -34 -17 3 -2 22 -18 42 -37 21 -19 41 -32 44 -28 4 4 -6 19 -22
33 l-29 26 43 -6 c61 -9 69 1 31 40 -31 32 -49 42 -49 27z"/>
<path d="M1135 1180 c-21 -22 -35 -43 -31 -47 4 -4 18 6 32 22 l25 30 -6 -42
c-10 -64 2 -70 46 -27 44 43 42 70 -3 27 -25 -23 -29 -25 -25 -8 26 89 16 100
-38 45z"/>
<path d="M1517 1182 c-35 -38 -13 -92 37 -92 20 0 56 35 56 55 0 21 -36 55
-58 55 -11 0 -26 -8 -35 -18z m62 -16 c16 -19 -19 -62 -42 -53 -20 7 -22 38
-5 55 16 16 33 15 47 -2z"/>
<path d="M2170 1180 c0 -6 132 -10 375 -10 243 0 375 4 375 10 0 6 -132 10
-375 10 -243 0 -375 -4 -375 -10z"/>
<path d="M3514 1165 c3 -14 9 -37 13 -52 l6 -28 -32 28 c-18 15 -40 27 -49 27
-13 -1 -9 -7 12 -25 39 -31 75 -50 82 -42 9 8 -18 117 -29 117 -5 0 -6 -11 -3
-25z"/>
<path d="M3798 1143 l-26 -28 33 -39 34 -38 30 23 c16 13 30 27 30 32 1 12
-16 8 -29 -8 -13 -15 -40 -21 -40 -8 0 3 7 15 17 25 22 24 8 36 -16 14 -13
-12 -21 -14 -26 -6 -4 7 2 18 14 26 21 15 28 34 13 34 -5 0 -20 -12 -34 -27z"/>
<path d="M1622 1104 c-13 -19 -22 -43 -20 -52 3 -12 9 -7 24 18 l19 35 3 -45
c2 -25 7 -49 12 -54 8 -8 60 64 60 84 0 19 -17 10 -30 -17 l-14 -28 -6 44 c-3
25 -9 46 -15 48 -5 1 -20 -13 -33 -33z"/>
<path d="M1222 1091 l-31 -39 23 -21 c12 -11 30 -21 39 -21 20 0 57 38 57 60
0 15 -39 60 -51 60 -3 0 -20 -17 -37 -39z m65 -6 c3 -9 -3 -25 -12 -35 -20
-22 -24 -23 -44 -11 -11 7 -10 13 4 35 19 29 43 34 52 11z"/>
<path d="M3410 1110 c0 -17 51 -92 58 -86 7 8 -39 96 -50 96 -5 0 -8 -5 -8
-10z"/>
<path d="M3375 1060 c21 -40 20 -41 -24 -17 -22 12 -43 18 -47 14 -9 -8 36
-97 48 -97 11 0 10 7 -7 40 -18 36 -17 36 30 9 49 -29 61 -14 29 39 -28 47
-53 58 -29 12z"/>
<path d="M3730 1080 c0 -5 3 -10 8 -10 4 0 18 -16 31 -35 13 -19 27 -35 32
-35 17 0 8 26 -21 58 -30 32 -50 41 -50 22z"/>
<path d="M1742 1054 c-33 -23 -27 -73 11 -94 27 -14 29 -14 48 9 l20 25 -23
12 c-27 15 -36 10 -19 -10 16 -19 -4 -32 -24 -16 -18 15 -19 42 -3 58 16 16
23 15 42 -4 9 -8 21 -14 28 -12 13 5 -29 48 -47 48 -6 0 -21 -7 -33 -16z"/>
<path d="M3665 1030 c-22 -25 -14 -62 19 -79 31 -17 64 -6 72 25 9 35 -3 43
-15 10 -12 -30 -27 -33 -52 -10 -21 19 -13 54 12 54 11 0 19 5 19 10 0 17 -36
11 -55 -10z"/>
<path d="M1317 1022 c-10 -10 -17 -28 -17 -39 0 -23 30 -53 53 -53 23 0 57 36
57 59 0 46 -62 67 -93 33z m71 -23 c3 -19 -25 -52 -41 -46 -22 7 -31 35 -17
52 16 20 54 16 58 -6z"/>
<path d="M3258 1034 c-4 -3 0 -21 8 -41 12 -27 12 -38 3 -49 -18 -22 -27 -17
-49 27 -25 48 -37 45 -20 -5 14 -42 36 -57 68 -45 30 11 37 33 22 72 -16 38
-24 49 -32 41z"/>
<path d="M1885 964 c-8 -20 -15 -44 -15 -53 1 -13 3 -13 16 4 10 13 24 19 41
17 16 -3 23 0 19 7 -4 6 -14 11 -22 11 -8 0 -14 7 -14 16 0 12 7 14 33 9 30
-6 31 -5 13 10 -32 25 -54 18 -71 -21z"/>
<path d="M1438 962 c-33 -40 -49 -72 -35 -72 8 0 20 12 28 28 l14 27 3 -45 c2
-25 7 -48 11 -53 4 -4 22 13 39 37 34 48 28 75 -7 29 l-20 -28 -1 42 c0 48
-11 60 -32 35z"/>
<path d="M3570 965 c-6 -8 -10 -22 -8 -32 3 -14 12 -17 42 -15 28 2 37 0 34
-10 -3 -7 -14 -14 -26 -16 -27 -4 -29 -22 -3 -22 30 0 63 32 55 54 -6 15 -14
17 -45 13 -29 -4 -39 -2 -39 9 0 8 10 14 25 14 14 0 25 5 25 10 0 15 -46 12
-60 -5z"/>
<path d="M1982 931 c-14 -46 -15 -61 -4 -61 9 0 32 66 32 89 0 25 -18 8 -28
-28z"/>
<path d="M3057 953 c-4 -6 1 -32 9 -57 12 -34 20 -46 31 -42 8 4 26 9 39 12
34 9 19 25 -16 17 -22 -4 -30 -2 -30 8 -1 26 -26 73 -33 62z"/>
<path d="M2031 906 c-13 -55 -13 -56 -1 -56 6 0 10 7 10 15 0 25 27 17 34 -10
4 -14 11 -25 17 -25 7 0 9 10 5 24 -4 16 -1 26 9 30 24 9 17 42 -10 54 -42 19
-52 14 -64 -32z m64 14 c3 -5 4 -14 0 -20 -8 -13 -35 -1 -35 16 0 16 26 19 35
4z"/>
<path d="M2967 923 c-9 -19 -8 -103 2 -103 6 0 11 6 11 14 0 16 37 28 46 15 3
-5 12 -9 20 -9 11 0 6 13 -17 45 -30 42 -52 55 -62 38z m41 -41 c2 -7 -3 -12
-12 -12 -9 0 -16 7 -16 16 0 17 22 14 28 -4z"/>
<path d="M2157 913 c-15 -14 -6 -40 18 -53 27 -15 31 -25 13 -36 -6 -4 -17 1
-24 11 -7 9 -18 15 -25 13 -19 -6 19 -38 47 -38 38 0 42 29 10 57 -31 27 -27
45 5 24 27 -16 40 -4 15 15 -21 15 -48 18 -59 7z"/>
<path d="M2847 892 c-21 -23 -22 -56 -1 -76 29 -29 84 -14 84 23 0 12 -3 11
-18 -2 -27 -24 -51 -21 -58 7 -8 34 3 49 31 42 27 -7 43 9 19 18 -26 10 -40 7
-57 -12z"/>
<path d="M1543 892 c-6 -4 -16 -20 -22 -35 -9 -23 -7 -31 9 -47 24 -24 66 -26
74 -4 8 20 -10 44 -32 44 -12 0 -12 -4 4 -21 19 -21 19 -21 -6 -18 -19 3 -25
10 -25 28 0 36 29 50 54 26 27 -23 35 -16 15 13 -15 22 -48 28 -71 14z"/>
<path d="M2255 890 c3 -5 12 -10 18 -10 8 0 11 -15 9 -45 -3 -28 0 -45 7 -45
6 0 11 13 11 29 0 41 9 61 26 54 8 -3 14 -1 14 5 0 11 -33 22 -68 22 -13 0
-20 -4 -17 -10z"/>
<path d="M2781 843 c5 -26 14 -52 20 -58 9 -7 10 -1 5 24 -3 18 -6 44 -6 57 0
14 -6 24 -14 24 -11 0 -12 -10 -5 -47z"/>
<path d="M2406 843 c-8 -54 -7 -73 4 -73 6 0 10 16 10 36 0 41 15 38 23 -6 8
-38 22 -38 36 0 5 17 13 30 16 30 4 0 4 -13 0 -30 -5 -23 -3 -30 9 -30 13 0
16 12 16 56 0 46 -3 55 -17 52 -9 -2 -21 -19 -28 -37 -12 -37 -18 -34 -29 12
-9 39 -32 34 -40 -10z"/>
<path d="M2557 873 c-4 -3 -7 -28 -7 -55 l0 -48 40 0 c22 0 40 5 40 10 0 6
-14 10 -31 10 -39 0 -34 22 7 31 l29 7 -32 1 c-44 1 -46 31 -3 31 17 0 30 5
30 10 0 11 -63 14 -73 3z"/>
<path d="M2662 830 c3 -28 8 -53 11 -57 4 -3 21 -2 39 3 28 8 34 15 36 42 4
43 -12 62 -55 62 l-36 0 5 -50z m66 -1 c2 -17 -3 -29 -13 -33 -25 -9 -35 1
-35 35 0 26 3 30 23 27 15 -2 23 -11 25 -29z"/>
<path d="M3430 872 c0 -6 37 -82 45 -90 1 -1 16 5 34 15 31 18 44 40 16 29 -8
-3 -21 -9 -29 -12 -10 -4 -20 7 -31 30 -16 32 -35 48 -35 28z"/>
<path d="M3357 843 c-9 -8 -7 -71 3 -103 l7 -25 11 26 c12 31 35 42 51 26 6
-6 14 -7 18 -3 4 4 -12 25 -35 47 -48 43 -46 42 -55 32z m37 -54 c-10 -16 -24
-9 -24 12 0 18 2 19 15 9 8 -7 12 -16 9 -21z"/>
<path d="M1685 779 c-37 -38 -38 -41 -15 -36 27 7 55 -5 55 -23 0 -5 5 -10 10
-10 6 0 11 25 13 55 4 68 -9 71 -63 14z m45 1 c0 -11 -7 -20 -15 -20 -13 0
-14 4 -5 20 6 11 13 20 15 20 3 0 5 -9 5 -20z"/>
<path d="M3242 788 c-29 -29 -6 -98 33 -98 24 0 55 23 55 41 0 14 -12 11 -26
-8 -17 -24 -49 -5 -49 28 0 19 6 25 28 27 15 2 25 8 22 13 -9 13 -49 11 -63
-3z"/>
<path d="M1797 762 c-20 -22 -22 -63 -5 -80 17 -17 68 -15 68 2 0 10 -9 14
-27 13 -23 -2 -28 2 -28 22 0 33 32 52 49 29 14 -20 26 -23 26 -9 0 16 -30 41
-49 41 -10 0 -25 -8 -34 -18z"/>
<path d="M3170 753 c0 -18 34 -93 41 -93 11 0 12 -1 -7 53 -9 26 -20 47 -25
47 -5 0 -9 -3 -9 -7z"/>
<path d="M1912 701 c-31 -39 -46 -79 -20 -53 19 19 49 14 55 -8 3 -11 10 -20
15 -20 13 0 6 113 -8 117 -6 2 -25 -14 -42 -36z m35 -28 c-3 -3 -11 -2 -17 2
-8 5 -7 11 2 22 12 15 13 14 16 -1 2 -10 1 -20 -1 -23z"/>
<path d="M3073 730 c-21 -9 -21 -9 -4 -54 22 -59 24 -60 60 -41 37 19 41 55
11 85 -22 22 -33 23 -67 10z m59 -36 c11 -23 10 -28 -7 -41 -18 -13 -21 -11
-33 17 -7 17 -10 35 -7 41 11 17 35 9 47 -17z"/>
<path d="M2011 664 c-6 -25 -9 -49 -6 -55 9 -13 69 -11 83 3 20 20 14 65 -10
82 -39 27 -55 20 -67 -30z m58 17 c9 -6 11 -18 7 -36 -5 -20 -12 -26 -29 -23
-16 2 -21 9 -19 23 7 46 14 53 41 36z"/>
<path d="M2973 703 c-13 -2 -23 -6 -23 -8 0 -21 23 -105 29 -105 17 0 71 22
71 29 0 4 -13 6 -30 3 -37 -5 -40 15 -5 28 35 13 31 24 -5 17 -22 -5 -30 -3
-30 8 0 8 9 15 19 15 11 0 23 5 26 10 6 10 -11 11 -52 3z"/>
<path d="M2137 682 c-3 -4 -7 -28 -11 -53 -6 -43 -5 -47 16 -53 34 -9 58 -7
58 4 0 6 -13 10 -30 10 -21 0 -30 5 -30 16 0 12 7 15 30 12 41 -6 49 9 10 17
-42 9 -33 31 11 27 22 -2 30 0 24 6 -13 12 -73 23 -78 14z"/>
<path d="M2893 683 c-7 -2 -13 -21 -14 -41 l0 -37 -16 33 c-10 19 -24 32 -35
32 -16 0 -18 -5 -13 -37 11 -62 16 -76 26 -66 6 6 6 20 0 36 -14 37 4 34 19
-3 16 -39 33 -34 40 11 l6 34 7 -32 c3 -18 11 -33 17 -33 6 0 9 8 7 18 -3 9
-8 34 -12 55 -6 37 -9 40 -32 30z"/>
<path d="M2246 658 c-11 -33 -15 -98 -8 -98 5 0 14 15 20 33 7 24 10 27 11 10
2 -39 12 -55 27 -42 8 6 14 17 14 25 0 7 5 16 11 20 8 5 10 -3 7 -25 -2 -17
-1 -31 3 -31 13 0 17 13 20 60 5 60 -22 68 -44 13 l-15 -38 -7 30 c-11 49 -14
55 -25 55 -6 0 -12 -6 -14 -12z"/>
<path d="M2381 650 c0 -8 6 -24 14 -34 8 -11 15 -32 15 -48 0 -15 5 -28 10
-28 6 0 10 8 10 18 0 9 9 31 20 47 26 39 25 57 -1 26 l-20 -25 -24 30 c-15 18
-24 23 -24 14z"/>
<path d="M2687 653 c-15 -4 -17 -13 -15 -54 3 -49 20 -68 26 -29 2 12 11 20
23 20 10 0 19 5 19 10 0 6 -11 10 -25 10 -16 0 -25 6 -25 15 0 9 9 15 25 15
14 0 25 5 25 10 0 10 -21 11 -53 3z"/>
<path d="M2556 634 c-34 -33 -12 -94 33 -94 34 0 54 20 54 55 0 50 -53 74 -87
39z m59 -39 c0 -25 -4 -30 -25 -30 -16 0 -26 6 -28 18 -6 30 6 49 30 45 18 -2
23 -9 23 -33z"/>
</g>
</svg>
